 http://kastatic.com/i2/u/1813980/0aq32UMZvX.gif

Cover 
http://www.shotpix.com/images/05029685023505235798.jpg

General
Complete name                            : 50 Cent - In Da Club [Music Video] 720p [Sbyky].mp4
Format                                   : MPEG-4
Format profile                           : Base Media
Codec ID                                 : isom
File size                                : 95.2 MiB
Duration                                 : 4mn 7s
Overall bit rate mode                    : Variable
Overall bit rate                         : 3 222 Kbps
Movie name                               : In Da Club
Encoded date                             : UTC 2007-04-20 13:32:57
Tagged date                              : UTC 2007-04-20 13:32:57
Writing application                      : Lavf51.11.0

Video
ID                                       : 1
Format                                   : AVC
Format/Info                              : Advanced Video Codec
Format profile                           : Main@L3.1
Format settings, CABAC                   : Yes
Format settings, ReFrames                : 1 frame
Codec ID                                 : avc1
Codec ID/Info                            : Advanced Video Coding
Duration                                 : 4mn 7s
Bit rate                                 : 3 058 Kbps
Width                                    : 1 280 pixels
Height                                   : 640 pixels
Display aspect ratio                     : 2.000
Frame rate mode                          : Constant
Frame rate                               : 23.976 fps
Color space                              : YUV
Chroma subsampling                       : 4:2:0
Bit depth                                : 8 bits
Scan type                                : Progressive
Bits/(Pixel*Frame)                       : 0.156
Stream size                              : 90.3 MiB (95%)
Encoded date                             : UTC 2007-04-20 13:32:57
Tagged date                              : UTC 2007-04-20 13:32:57

Audio
ID                                       : 2
Format                                   : AAC
Format/Info                              : Advanced Audio Codec
Format profile                           : LC
Codec ID                                 : 40
Duration                                 : 4mn 7s
Bit rate mode                            : Variable
Bit rate                                 : 160 Kbps
Channel(s)                               : 2 channels
Channel positions                        : Front: L R
Sampling rate                            : 48.0 KHz
Compression mode                         : Lossy
Stream size                              : 4.71 MiB (5%)
Encoded date                             : UTC 2007-04-20 13:32:57
Tagged date                              : UTC 2007-04-20 13:32:57

Shared By Sbyky 
http://kastatic.com/i2/u/1813980/bQg62viaEG.gif